<svg xmlns="http://www.w3.org/2000/svg" xmlns:ev="http://www.w3.org/2001/xml-events" xmlns:xlink="http://www.w3.org/1999/xlink" width="11in" height="816" class="st29" color-interpolation-filters="sRGB" viewBox="0 0 792 612" xml:space="preserve"><style type="text/css">.st1{stroke:#505050;stroke-linecap:round;stroke-linejoin:round;stroke-width:1}.st2,.st3{fill:#4672c4;stroke:#c7c8c8;stroke-width:.25}.st3{fill:none;stroke:none}.st4{fill:#7f7f7f;font-family:Calibri;font-size:1.00001em}.st5,.st6{stroke:#4672c4}.st5{marker-end:url(#mrkr4-19);stroke-linecap:round;stroke-linejoin:round;stroke-width:1}.st6{fill:#4672c4;fill-opacity:1;stroke-opacity:1;stroke-width:.28409090909091}.st7{fill:#fff;stroke:none;stroke-linecap:butt;stroke-width:7.2}.st8{fill:#3c63ac;font-family:Calibri;font-size:.666664em}.st9{fill:#ed7d31}.st10{marker-end:url(#mrkr4-30);stroke-dasharray:7,5;stroke-linecap:round;stroke-linejoin:round;stroke-width:1}.st10,.st11,.st12{stroke:#ed7d31}.st11{stroke-dasharray:7,5;stroke-linecap:round;stroke-linejoin:round;stroke-width:1}.st12{fill:#ed7d31;fill-opacity:1;stroke-opacity:1;stroke-width:.28409090909091}.st13,.st14{fill:#ed7d31;font-family:Calibri;font-size:.833336em}.st14{fill:#7f7f7f;font-size:2.33334em;font-weight:700}.st15{fill:#4672c4;stroke:#c7c8c8;stroke-linecap:butt;stroke-width:.25}.st16{fill:#4672c4;font-family:Calibri;font-size:.833336em}.st17{fill:#fff;stroke:#70ad47;stroke-width:.25}.st18{fill:#00b050;font-family:Calibri;font-size:1.16666em}.st19{font-size:1em}.st20{stroke-dasharray:7,5}.st20,.st21{marker-end:url(#mrkr4-57);stroke:#4672c4;stroke-linecap:round;stroke-linejoin:round;stroke-width:1}.st22{fill:#3c63ac;stroke:#30518f;stroke-width:.75}.st23,.st24{fill:#7f7f7f;stroke:#c7c8c8;stroke-width:.25}.st24{stroke:#deebf6}.st25{fill:red;font-family:Calibri;font-size:.666664em}.st26{fill:none;stroke:#7f7f7f;stroke-width:3}.st27{fill:#00b050;font-family:Calibri;font-size:1.16666em;font-weight:700}.st28{fill:none;stroke:#30518f;stroke-dasharray:.01,3.75;stroke-width:.75}.st29{fill:none;fill-rule:evenodd;font-size:12px;overflow:visible;stroke-linecap:square;stroke-miterlimit:3}</style><defs id="Markers"><g id="lend4"><path d="M 2 1 L 0 0 L 2 -1 L 2 1" style="stroke:none"/></g><marker id="mrkr4-19" class="st6" markerUnits="strokeWidth" orient="auto" overflow="visible" refX="-6.68"><use transform="scale(-3.52,-3.52)" xlink:href="#lend4"/></marker><marker id="mrkr4-30" class="st12" markerUnits="strokeWidth" orient="auto" overflow="visible" refX="-6.68"><use transform="scale(-3.52,-3.52)" xlink:href="#lend4"/></marker><marker id="mrkr4-57" class="st6" markerUnits="strokeWidth" orient="auto" overflow="visible" refX="-7.04"><use transform="scale(-3.52,-3.52)" xlink:href="#lend4"/></marker></defs><g><title>Page-1</title><g id="shape2-1" transform="translate(105.75,-375.75)"><title>Line 1.2</title><path d="M0 612 L630 612" class="st1"/></g><g id="shape3-4" transform="translate(250.866,-366.739)"><title>Circle.3</title><path d="M0 601.87 A10.134 10.134 0 0 1 20.27 601.87 A10.134 10.134 0 1 1 0 601.87 Z" class="st2"/></g><g id="shape13-6" transform="translate(81,-381.6)"><title>Sheet.13</title><desc>Caliptra RTL</desc><rect width="74.124" height="14.4" x="0" y="597.6" class="st3"/><text x="8.05" y="608.4" class="st4">Caliptra RTL</text></g><g id="shape15-9" transform="translate(108,-270)"><title>Line 1.15</title><path d="M0 612 L632.26 612" class="st1"/></g><g id="shape16-12" transform="translate(246.366,-211.921)"><title>Circle.16</title><path d="M0 601.87 A10.134 10.134 0 0 1 20.27 601.87 A10.134 10.134 0 1 1 0 601.87 Z" class="st2"/></g><g id="shape17-14" transform="translate(532.582,-156.065) rotate(34.5742)"><title>Line-curve connector.17</title><desc>ci_rtl_&lt;date&gt;_n</desc><path d="M0 612 L3.48 622.29 L8.41 629.79 L14.8 634.5 L22.64 636.43 L31.94 635.56 L42.69 631.92 L54.9 625.48 L68.57 616.26 L68.86 616.04" class="st5"/><rect width="51.343" height="9.6" x="-366.844" y="533.061" class="st7" transform="rotate(-34.5742)"/><text x="-366.84" y="540.26" class="st8" transform="rotate(-34.5742)">ci_rtl_&lt;date&gt;_n</text></g><g id="shape22-22" transform="translate(81.0162,-270)"><title>Sheet.22</title><desc>Caliptra SW</desc><rect width="74.124" height="14.4" x="0" y="597.6" class="st3"/><text x="8.66" y="608.4" class="st4">Caliptra SW</text></g><g id="shape29-25" transform="translate(-362.353,363.184) rotate(-88.1653)"><title>Arced Line Arrow.29</title><path d="M135.46 610.04 L134.48 612.59 L140.56 612 L136.44 607.49 L135.46 610.04 Z" class="st9"/><path d="M5.1 610.04 A188.933 188.933 0 0 1 128.81 607.74 L129.15 607.85" class="st10"/><path d="M135.46 610.04 L134.48 612.59 L140.56 612 L136.44 607.49 L135.46 610.04" class="st11"/></g><g id="shape30-32" transform="translate(232.852,-273.96)"><title>Sheet.30</title><desc>git submodule</desc><rect width="110.297" height="23.04" x="0" y="588.96" class="st3"/><text x="26.11" y="603.48" class="st13">git submodule</text></g><g id="shape99-35" transform="translate(216,-484.56)"><title>Sheet.99</title><desc>HW Release Flow</desc><rect width="328.32" height="37.44" x="0" y="574.56" class="st3"/><text x="63.53" y="601.68" class="st14">HW Release Flow</text></g><g id="group139-38" transform="translate(389.601,-204.038)"><title>Filing Box Archive.139</title><desc>Release N</desc><g id="shape140-39"><title>Sheet.140</title><path d="M40.93 595.18 L23.87 595.18 L23.87 590.38 L40.93 590.38 L40.93 595.18 ZM2.56 585.57 L2.56 612 L62.24 612 L62.24 585.57 L2.56 585.57 ZM0 583.17 L64.8 583.17 L64.8 575.97 L0 575.97 L0 583.17 Z" class="st15"/></g><g id="shape141-41" transform="translate(0.00426319,-0.00300287)"><title>Sheet.141</title></g><g id="shape139-43"><text x="12.37" y="625" class="st16">Release N</text></g></g><g id="shape221-45" transform="translate(506.921,-308.751)"><title>Process group.221</title><desc>RTL DV Checkout</desc><path d="M0 612 L80.92 612 L92.47 588.88 L80.92 565.76 L0 565.76 L11.56 588.88 L0 612 Z" class="st17"/><text x="26.22" y="584.68" class="st18">RTL DV <tspan x="19.49" class="st19" dy="1.2em">Checkout</tspan></text></g><g id="shape226-49" transform="translate(283.5,-200.68)"><title>Process group.226</title><desc>RTL Update</desc><path d="M0 612 L74.81 612 L85.5 590.63 L74.81 569.25 L0 569.25 L10.69 590.63 L0 612 Z" class="st17"/><text x="9.99" y="594.83" class="st18">RTL Update</text></g><g id="shape249-52" transform="translate(268.167,-369.706)"><title>Dynamic connector.249</title><path d="M0 612 L9.72 612 L9.72 649.84 L243.27 649.84" class="st20"/></g><g id="shape252-58" transform="translate(655.938,-340.5)"><title>Sheet.252</title><desc>Caliptra Major HW Release</desc><rect width="74.124" height="10.5" x="0" y="601.5" class="st3"/><text x="4" y="595.95" class="st4">Caliptra <tspan x="4" class="st19" dy="1.2em">Major HW </tspan><tspan x="4" class="st19" dy="1.2em">Release</tspan></text></g><g id="shape280-63" transform="translate(266.634,-213.055)"><title>Dynamic connector.280</title><path d="M0 603 L20.51 603" class="st21"/></g><g id="shape283-68" transform="translate(108,-432)"><title>Line 1.283</title><path d="M0 612 L627.23 612" class="st1"/></g><g id="shape284-71" transform="translate(84.438,-438.3)"><title>Sheet.284</title><desc>Caliptra Spec</desc><rect width="74.124" height="14.4" x="0" y="597.6" class="st3"/><text x="5.32" y="608.4" class="st4">Caliptra Spec</text></g><g id="shape285-74" transform="translate(1212.88,288) rotate(90) scale(-1,1)"><title>Bent Arrow</title><path d="M0 612 L11.25 612 L11.25 593.69 A24.1798 24.1798 0 0 1 35.44 569.5 L78.75 569.5 L78.75 574 L94.5 563.88 L78.75 553.75 L78.75 558.25 L35.44 558.25 A35.4262 35.4262 -180 0 0 0 593.69 L0 612 Z" class="st22"/></g><g id="shape286-76" transform="translate(174.366,-366.732)"><title>Circle.1</title><path d="M0 601.87 A10.134 10.134 0 0 1 20.27 601.87 A10.134 10.134 0 1 1 0 601.87 Z" class="st23"/></g><g id="shape287-78" transform="translate(638.857,-423)"><title>Circle.287</title><path d="M0 601.87 A10.134 10.134 0 0 1 20.27 601.87 A10.134 10.134 0 1 1 0 601.87 Z" class="st2"/></g><g id="group288-80" transform="translate(611.929,-471.781)"><title>Filing Box Archive.288</title><desc>HW Release Package</desc><g id="shape289-81"><title>Sheet.289</title><path d="M46.82 592.76 L27.31 592.76 L27.31 587.27 L46.82 587.27 L46.82 592.76 ZM2.93 581.77 L2.93 612 L71.2 612 L71.2 581.77 L2.93 581.77 ZM0 579.02 L74.12 579.02 L74.12 570.78 L0 570.78 L0 579.02 Z" class="st15"/></g><g id="shape290-83" transform="translate(0.00487661,-0.00343495)"><title>Sheet.290</title></g><g id="shape288-85"><text x="12.69" y="625" class="st16">HW Release <tspan x="20.46" class="st19" dy="1.2em">Package</tspan></text></g></g><g id="shape293-88" transform="translate(558,-243)"><title>Sheet.293</title><desc>Manual for Major releases</desc><rect width="60.75" height="3.384" x="0" y="608.616" class="st3"/><text x="4" y="599.51" class="st4">Manual <tspan x="4" class="st19" dy="1.2em">for Major </tspan><tspan x="4" class="st19" dy="1.2em">releases</tspan></text></g><g id="shape297-93" transform="translate(363.366,-261)"><title>Circle.297</title><path d="M0 601.87 A10.134 10.134 0 0 1 20.27 601.87 A10.134 10.134 0 1 1 0 601.87 Z" class="st2"/></g><g id="shape299-95" transform="translate(477,-261)"><title>Circle.299</title><path d="M0 601.87 A10.134 10.134 0 0 1 20.27 601.87 A10.134 10.134 0 1 1 0 601.87 Z" class="st24"/></g><g id="shape14-97" transform="translate(182.14,-261)"><title>Circle.14</title><path d="M0 601.25 A10.7541 10.7541 0 0 1 21.51 601.25 A10.7541 10.7541 0 1 1 0 601.25 Z" class="st23"/></g><g id="shape305-99" transform="translate(216,-360)"><title>Sheet.305</title><desc>HEAD</desc><rect width="33.12" height="10.08" x="0" y="601.92" class="st3"/><text x="7.34" y="609.36" class="st25">HEAD</text></g><g id="shape307-102" transform="translate(289.611,-248.67)"><title>Sheet.307</title><desc>Release_v&lt;date&gt;_n</desc><rect width="79.722" height="10.08" x="0" y="601.92" class="st3"/><text x="8.1" y="609.36" class="st25">Release_v&lt;date&gt;_n</text></g><g id="shape309-105" transform="translate(362.25,-222.055)"><title>Dynamic connector.309</title><path d="M6.75 612 L11.25 612 L11.25 580.1" class="st21"/></g><g id="shape318-110" transform="translate(159.75,-162)"><title>Sheet.318</title><rect width="299.25" height="148.5" x="0" y="463.5" class="st26"/></g><g id="shape319-112" transform="translate(159.75,-159.75)"><title>Sheet.319</title><desc>Nightly Release Workflow</desc><rect width="168.75" height="22.5" x="0" y="589.5" class="st3"/><text x="9" y="604.95" class="st27">Nightly Release Workflow</text></g><g id="shape332-115" transform="translate(380.667,-263.967)"><title>Dynamic connector.332</title><path d="M0 612 L0 621.72 L41.33 621.72 L41.33 628.85" class="st21"/></g><g id="shape333-120" transform="translate(1077.53,393.75) rotate(90) scale(-1,1)"><title>Bent Arrow.333</title><path d="M0 612 L11.25 612 L11.25 556.09 A20.8059 20.8059 0 0 1 32.06 535.28 L69.75 535.28 L69.75 539.78 L85.5 529.65 L69.75 519.53 L69.75 524.03 L32.06 524.03 A32.0523 32.0523 -180 0 0 0 556.09 L0 612 Z" class="st28"/></g></g></svg>